<?xml version="1.0" encoding="utf-8"?>
<!-- Generator: Adobe Illustrator 17.0.0, SVG Export Plug-In . SVG Version: 6.00 Build 0)  -->
<!DOCTYPE svg PUBLIC "-//W3C//DTD SVG 1.1//EN" "http://www.w3.org/Graphics/SVG/1.1/DTD/svg11.dtd">
<svg version="1.1" id="Layer_1" xmlns="http://www.w3.org/2000/svg" xmlns:xlink="http://www.w3.org/1999/xlink" x="0px" y="0px"
	 width="410.656px" height="181.86px" viewBox="0 0 410.656 181.86" enable-background="new 0 0 410.656 181.86"
	 xml:space="preserve">
<g enable-background="new    ">
	<path fill="#FFFFFF" d="M22.606,157.261H6.214v15.732H5.028v-31.992h19.819v1.187H6.214v13.843h16.392V157.261z"/>
	<path fill="#FFFFFF" d="M40.074,150.076l-1.538-0.131c-2.124,0-3.849,0.685-5.174,2.054c-1.326,1.37-2.187,3.175-2.582,5.417
		v15.578h-1.187v-23.774h0.967l0.22,4.131v0.813c0.659-1.699,1.641-3.021,2.944-3.967c1.304-0.944,2.908-1.417,4.812-1.417
		c0.337,0,0.648,0.025,0.934,0.077c0.285,0.051,0.531,0.106,0.736,0.164L40.074,150.076z"/>
	<path fill="#FFFFFF" d="M42.227,160.645c0-3.486,0.963-6.335,2.889-8.548c1.926-2.211,4.428-3.317,7.504-3.317
		c3.091,0,5.599,1.106,7.525,3.317c1.926,2.213,2.89,5.062,2.89,8.548v0.923c0,3.501-0.963,6.357-2.89,8.569
		s-4.42,3.317-7.481,3.317c-3.091,0-5.603-1.105-7.537-3.317s-2.9-5.068-2.9-8.569V160.645z M43.414,161.568
		c0,2.988,0.835,5.519,2.505,7.592c1.67,2.072,3.918,3.109,6.746,3.109c2.783,0,5.01-1.04,6.68-3.121
		c1.67-2.079,2.505-4.606,2.505-7.58v-0.923c0-2.915-0.842-5.424-2.527-7.525c-1.685-2.103-3.918-3.153-6.702-3.153
		c-2.798,0-5.032,1.051-6.702,3.153c-1.67,2.102-2.505,4.61-2.505,7.525V161.568z"/>
	<path fill="#FFFFFF" d="M69.737,149.219l0.154,4.899c0.718-1.698,1.765-3.014,3.142-3.943c1.377-0.931,3.076-1.396,5.098-1.396
		c2.593,0,4.537,0.816,5.834,2.45c1.296,1.633,1.944,4.223,1.944,7.768v13.996h-1.187v-14.041c0-3.295-0.59-5.617-1.769-6.965
		c-1.18-1.348-2.78-2.021-4.801-2.021c-2.563,0-4.497,0.766-5.801,2.296c-1.304,1.531-2.117,3.49-2.439,5.878v14.854h-1.187v-23.774
		H69.737z"/>
	<path fill="#FFFFFF" d="M95.819,142.803v6.416h5.845v1.208h-5.845v16.436c0,1.949,0.33,3.337,0.989,4.164
		c0.659,0.828,1.531,1.242,2.615,1.242c0.396,0,0.747-0.015,1.055-0.045c0.308-0.028,0.732-0.08,1.274-0.153l0.22,1.077
		c-0.366,0.116-0.747,0.197-1.143,0.241s-0.842,0.065-1.34,0.065c-1.597,0-2.809-0.52-3.636-1.56
		c-0.828-1.04-1.242-2.717-1.242-5.032v-16.436h-4.395v-1.208h4.395v-6.416H95.819z"/>
	<path fill="#FFFFFF" d="M125.108,156.909h-16.04v14.897h18.281v1.187h-19.468v-31.992h19.468v1.187h-18.281v13.535h16.04V156.909z"
		/>
	<path fill="#FFFFFF" d="M133.897,149.219l0.154,4.899c0.718-1.698,1.765-3.014,3.142-3.943c1.377-0.931,3.076-1.396,5.098-1.396
		c2.593,0,4.537,0.816,5.834,2.45c1.296,1.633,1.944,4.223,1.944,7.768v13.996h-1.187v-14.041c0-3.295-0.59-5.617-1.769-6.965
		c-1.18-1.348-2.78-2.021-4.801-2.021c-2.563,0-4.497,0.766-5.801,2.296c-1.304,1.531-2.117,3.49-2.439,5.878v14.854h-1.187v-23.774
		H133.897z"/>
	<path fill="#FFFFFF" d="M156.419,161.084c0-3.765,0.791-6.757,2.373-8.976c1.582-2.22,3.779-3.329,6.592-3.329
		c1.86,0,3.468,0.417,4.823,1.253c1.354,0.834,2.435,1.977,3.241,3.428v-14.744h1.187v34.277h-1.143l-0.044-3.691
		c-0.791,1.274-1.878,2.285-3.263,3.032c-1.384,0.747-2.999,1.12-4.845,1.12c-2.798,0-4.984-1.068-6.559-3.207
		c-1.575-2.139-2.362-5.039-2.362-8.701V161.084z M157.65,161.546c0,3.281,0.648,5.889,1.944,7.822c1.297,1.934,3.205,2.9,5.724,2.9
		c2.065,0,3.783-0.469,5.153-1.406c1.369-0.938,2.362-2.19,2.977-3.758v-11.141c-0.571-1.698-1.494-3.123-2.769-4.273
		c-1.274-1.149-3.047-1.725-5.317-1.725c-2.52,0-4.435,1.029-5.746,3.087c-1.312,2.059-1.967,4.735-1.967,8.031V161.546z"/>
	<path fill="#FFFFFF" d="M212.735,165.326c0-2.007-0.736-3.611-2.208-4.812c-1.473-1.201-4.024-2.3-7.658-3.296
		c-3.647-0.981-6.317-2.099-8.009-3.351c-1.691-1.253-2.538-3.08-2.538-5.482c0-2.388,0.996-4.292,2.988-5.713
		s4.534-2.131,7.625-2.131c3.12,0,5.669,0.871,7.646,2.614s2.938,3.984,2.879,6.724l-0.044,0.132h-1.011
		c0-2.388-0.879-4.365-2.637-5.933s-4.036-2.352-6.834-2.352c-2.9,0-5.196,0.648-6.889,1.945c-1.691,1.296-2.538,2.853-2.538,4.669
		s0.699,3.325,2.098,4.526s3.93,2.271,7.592,3.208c3.545,0.938,6.222,2.084,8.031,3.438c1.809,1.355,2.714,3.278,2.714,5.768
		c0,2.535-1.033,4.53-3.099,5.988c-2.065,1.457-4.65,2.186-7.756,2.186c-3.208,0-5.969-0.75-8.284-2.252
		c-2.314-1.501-3.435-3.863-3.362-7.086l0.044-0.132h0.989c0,2.9,1.069,5.006,3.208,6.317c2.139,1.311,4.607,1.967,7.405,1.967
		c2.813,0,5.124-0.645,6.932-1.934C211.831,169.046,212.735,167.376,212.735,165.326z"/>
	<path fill="#FFFFFF" d="M222.25,142.803v6.416h5.845v1.208h-5.845v16.436c0,1.949,0.329,3.337,0.988,4.164
		c0.659,0.828,1.531,1.242,2.615,1.242c0.396,0,0.747-0.015,1.055-0.045c0.308-0.028,0.732-0.08,1.274-0.153l0.22,1.077
		c-0.366,0.116-0.747,0.197-1.143,0.241s-0.843,0.065-1.341,0.065c-1.597,0-2.809-0.52-3.636-1.56
		c-0.828-1.04-1.242-2.717-1.242-5.032v-16.436h-4.395v-1.208h4.395v-6.416H222.25z"/>
	<path fill="#FFFFFF" d="M239.981,168.687l0.879,2.373h0.132l0.132-0.352l8.218-21.489h1.318l-10.568,27.729
		c-0.645,1.67-1.396,3.028-2.253,4.076c-0.856,1.047-2.223,1.57-4.098,1.57c-0.278,0-0.586-0.025-0.923-0.076
		c-0.337-0.052-0.586-0.106-0.747-0.165l0.198-1.12c0.161,0.043,0.402,0.088,0.725,0.131c0.322,0.045,0.571,0.066,0.747,0.066
		c1.348,0,2.398-0.396,3.153-1.187c0.754-0.791,1.425-1.963,2.011-3.516l1.428-3.867l-9.47-23.643h1.296L239.981,168.687z"/>
	<path fill="#FFFFFF" d="M256.659,172.993h-1.187v-34.277h1.187V172.993z"/>
	<path fill="#FFFFFF" d="M272.567,173.454c-2.71,0-5.051-1.095-7.021-3.284c-1.971-2.19-2.955-4.911-2.955-8.163v-1.406
		c0-3.413,0.952-6.236,2.856-8.471c1.904-2.233,4.255-3.351,7.053-3.351c2.681,0,4.867,0.879,6.559,2.637
		c1.692,1.758,2.538,4.116,2.538,7.075v1.824h-17.819v0.285v1.406c0,2.871,0.842,5.299,2.526,7.284
		c1.685,1.984,3.772,2.978,6.263,2.978c1.772,0,3.255-0.242,4.449-0.726c1.193-0.483,2.216-1.208,3.065-2.175l0.637,0.922
		c-0.938,1.041-2.076,1.828-3.417,2.362C275.962,173.188,274.384,173.454,272.567,173.454z M272.501,149.966
		c-2.358,0-4.321,0.86-5.889,2.582c-1.567,1.721-2.453,3.871-2.658,6.449l0.065,0.131h16.392v-0.725
		c0-2.417-0.732-4.428-2.197-6.031C276.749,150.768,274.845,149.966,272.501,149.966z"/>
	<path fill="#FFFFFF" d="M321.06,169.566c-0.674,0.938-1.967,1.82-3.878,2.647c-1.912,0.828-4.259,1.241-7.042,1.241
		c-3.662,0-6.633-1.303-8.91-3.91c-2.278-2.607-3.417-5.999-3.417-10.174v-5.229c0-4.014,1.106-7.284,3.318-9.811
		c2.212-2.527,5.09-3.79,8.635-3.79c3.384,0,6.068,0.875,8.053,2.625c1.985,1.751,3,4.01,3.044,6.779l-0.044,0.131h-0.989
		c-0.117-2.475-1.029-4.485-2.735-6.031c-1.707-1.545-4.149-2.318-7.328-2.318c-3.237,0-5.841,1.154-7.812,3.461
		c-1.97,2.308-2.955,5.277-2.955,8.91v5.273c0,3.809,1.019,6.91,3.055,9.306c2.036,2.395,4.731,3.593,8.086,3.593
		c2.358,0,4.42-0.345,6.185-1.033c1.766-0.688,2.948-1.428,3.549-2.219v-9.316h-9.777v-1.209h10.964V169.566z"/>
	<path fill="#FFFFFF" d="M344.769,168.731c-0.747,1.509-1.813,2.674-3.197,3.493c-1.385,0.82-3.065,1.23-5.043,1.23
		c-2.446,0-4.361-0.867-5.746-2.604c-1.384-1.735-2.076-4.428-2.076-8.074v-13.558h1.187v13.601c0,3.224,0.594,5.604,1.78,7.142
		s2.79,2.308,4.812,2.308c2.476,0,4.376-0.608,5.702-1.824c1.325-1.216,2.172-2.827,2.538-4.834v-16.392h1.208v23.774h-0.988
		L344.769,168.731z"/>
	<path fill="#FFFFFF" d="M354.898,141.748h-1.187v-3.032h1.187V141.748z M354.898,172.993h-1.187v-23.774h1.187V172.993z"/>
	<path fill="#FFFFFF" d="M361.6,161.084c0-3.765,0.791-6.757,2.373-8.976c1.582-2.22,3.779-3.329,6.592-3.329
		c1.86,0,3.468,0.417,4.823,1.253c1.354,0.834,2.435,1.977,3.24,3.428v-14.744h1.187v34.277h-1.143l-0.044-3.691
		c-0.791,1.274-1.878,2.285-3.263,3.032c-1.384,0.747-2.999,1.12-4.845,1.12c-2.798,0-4.984-1.068-6.559-3.207
		c-1.575-2.139-2.362-5.039-2.362-8.701V161.084z M362.831,161.546c0,3.281,0.648,5.889,1.944,7.822
		c1.297,1.934,3.204,2.9,5.724,2.9c2.065,0,3.783-0.469,5.153-1.406c1.369-0.938,2.361-2.19,2.977-3.758v-11.141
		c-0.571-1.698-1.494-3.123-2.769-4.273c-1.274-1.149-3.047-1.725-5.317-1.725c-2.52,0-4.435,1.029-5.745,3.087
		c-1.312,2.059-1.967,4.735-1.967,8.031V161.546z"/>
	<path fill="#FFFFFF" d="M395.438,173.454c-2.71,0-5.051-1.095-7.021-3.284c-1.971-2.19-2.955-4.911-2.955-8.163v-1.406
		c0-3.413,0.952-6.236,2.856-8.471c1.904-2.233,4.255-3.351,7.053-3.351c2.681,0,4.867,0.879,6.559,2.637
		c1.692,1.758,2.538,4.116,2.538,7.075v1.824h-17.819v0.285v1.406c0,2.871,0.842,5.299,2.526,7.284
		c1.685,1.984,3.772,2.978,6.263,2.978c1.772,0,3.255-0.242,4.449-0.726c1.193-0.483,2.216-1.208,3.065-2.175l0.637,0.922
		c-0.938,1.041-2.076,1.828-3.417,2.362C398.833,173.188,397.255,173.454,395.438,173.454z M395.372,149.966
		c-2.358,0-4.321,0.86-5.889,2.582c-1.567,1.721-2.453,3.871-2.658,6.449l0.065,0.131h16.392v-0.725
		c0-2.417-0.732-4.428-2.197-6.031C399.62,150.768,397.716,149.966,395.372,149.966z"/>
</g>
<g>
	<circle fill="none" stroke="#FFFFFF" stroke-width="5" stroke-miterlimit="10" cx="203.402" cy="58.2" r="54.999"/>
	<g>
		<line fill="none" x1="179.296" y1="74.647" x2="203.652" y2="37.151"/>
		<g>
			<path fill="#F1F2F2" d="M184.259,77.549c8.119-12.499,16.238-24.997,24.356-37.496c4.052-6.238-5.906-11.994-9.927-5.803
				c-8.119,12.499-16.238,24.997-24.356,37.496C170.28,77.984,180.237,83.74,184.259,77.549L184.259,77.549z"/>
		</g>
	</g>
	<g>
		<line fill="none" x1="194.257" y1="58.264" x2="202.402" y2="45.546"/>
		<g>
			<path fill="#FFFFFF" d="M197.28,60.031c2.715-4.24,5.43-8.479,8.145-12.719c2.442-3.814-3.619-7.321-6.044-3.533
				c-2.715,4.24-5.43,8.479-8.145,12.719C188.793,60.312,194.854,63.819,197.28,60.031L197.28,60.031z"/>
		</g>
	</g>
	<g>
		<line fill="none" x1="203.652" y1="37.151" x2="228.008" y2="74.647"/>
		<g>
			<path fill="#58595B" d="M198.688,40.053c8.119,12.499,16.238,24.997,24.356,37.496c4.022,6.191,13.979,0.435,9.927-5.803
				c-8.119-12.499-16.238-24.997-24.357-37.496C204.594,28.059,194.636,33.815,198.688,40.053L198.688,40.053z"/>
		</g>
	</g>
	<g>
		<line fill="none" x1="222.687" y1="73.087" x2="203.652" y2="43.653"/>
		<g>
			<path fill="#FFFFFF" d="M225.709,71.32c-6.345-9.811-12.69-19.622-19.035-29.433c-2.441-3.775-8.504-0.27-6.044,3.533
				c6.345,9.811,12.69,19.622,19.035,29.434C222.106,78.628,228.169,75.123,225.709,71.32L225.709,71.32z"/>
		</g>
	</g>
	<g>
		
			<line fill="none" stroke="#D1D3D4" stroke-width="0.5" stroke-miterlimit="10" x1="184.269" y1="31.608" x2="223.601" y2="31.608"/>
		<rect x="202.977" y="30.651" fill="#E6E7E8" width="1.916" height="1.916"/>
		<rect x="183.311" y="30.651" fill="#E6E7E8" width="1.916" height="1.916"/>
		<rect x="222.476" y="30.649" fill="#E6E7E8" width="1.916" height="1.918"/>
	</g>
	<g>
		
			<line fill="none" stroke="#D1D3D4" stroke-width="0.5" stroke-miterlimit="10" x1="159.489" y1="68.206" x2="192.107" y2="90.186"/>
		
			<rect x="174.846" y="78.24" transform="matrix(-0.8294 -0.5587 0.5587 -0.8294 277.365 243.1033)" fill="#E6E7E8" width="1.916" height="1.917"/>
		
			<rect x="158.528" y="67.25" transform="matrix(-0.8289 -0.5594 0.5594 -0.8289 253.5288 213.9625)" fill="#E6E7E8" width="1.917" height="1.917"/>
		
			<rect x="191.018" y="89.136" transform="matrix(-0.8294 -0.5587 0.5587 -0.8294 300.8619 272.072)" fill="#E6E7E8" width="1.916" height="1.917"/>
	</g>
	<g>
		
			<line fill="none" stroke="#D1D3D4" stroke-width="0.5" stroke-miterlimit="10" x1="215.15" y1="90.202" x2="247.768" y2="68.224"/>
		
			<rect x="230.506" y="78.25" transform="matrix(-0.8294 0.5587 -0.5587 -0.8294 467.6887 15.586)" fill="#E6E7E8" width="1.916" height="1.917"/>
		
			<rect x="214.197" y="89.24" transform="matrix(-0.8294 0.5587 -0.5587 -0.8294 443.9934 44.804)" fill="#E6E7E8" width="1.916" height="1.917"/>
		
			<rect x="246.672" y="67.358" transform="matrix(-0.8289 0.5594 -0.5594 -0.8289 491.1063 -13.5806)" fill="#E6E7E8" width="1.917" height="1.917"/>
	</g>
</g>
</svg>
